<?xml version="1.0" encoding="UTF-8" standalone="no"?>
<svg viewBox="0 0 512 512" version="1.1" xmlns="http://www.w3.org/2000/svg" xmlns:xlink="http://www.w3.org/1999/xlink" width="512" height="512">
  <defs>
    <linearGradient id="musicGradient" x1="0%" y1="0%" x2="100%" y2="100%">
      <stop offset="0%" stop-color="#6a11cb"/>
      <stop offset="50%" stop-color="#8f3dff"/>
      <stop offset="100%" stop-color="#2575fc"/>
    </linearGradient>
  </defs>
  <!-- 透明背景 -->
  <g>
    <!-- 音乐图标路径 -->
    <path d="M384.248 179.56L324.112 286a64 64 0 1 1-0.824-46.144l45.392-80.328A147.6 147.6 0 0 0 260 112C178.256 112 112 178.256 112 260S178.256 408 260 408C341.736 408 408 341.736 408 260c0-29.664-8.72-57.28-23.752-80.44zM300.136 281.176l-0.136-0.072l0.824-1.456a40 40 0 1 0-0.688 1.536zM432 260C432 354.992 354.992 432 260 432S88 354.992 88 260 165.008 88 260 88 432 165.008 432 260z" fill="url(#musicGradient)" />
  </g>
</svg> 